<svg version="1" xmlns="http://www.w3.org/2000/svg" width="1834.667" height="1834.667" viewBox="0 0 1376.000000 1376.000000"><path d="M588.3 27.8l.2 19.7 99.3.2c54.7 0 99.6.3 99.9.6.6.7.6 78.7-.1 79.4-.2.3-45.2.6-99.8.6l-99.3.2-.2 19.7-.2 19.6h39.5c21.8 0 39.8.3 40.1.5.6.7.6 118.7 0 119.4-.3.3-18.3.5-40.1.5l-39.5-.1.2 20.2.2 20.2-60.2-.2-60.2-.2.2 20.2.2 20.2-40.2-.2-40.2-.1.2 20.1.2 20.2-20.2-.2-20.2-.3.2 20.3.2 20.2-20.2-.2-20.1-.3.1 40.3.2 40.2-20.2-.2-20.1-.2-.1 59.9v59.9h38.4c2 .1 2 .7 1.8 60l-.2 59.8h19.5c10.7.1 19.7.3 20 .6.3.3.6 9.5.7 20.5l.2 20.1h-20.2c-15 0-20.3-.3-20.4-1.2 0-.7-.1-9.8-.2-20.2l-.2-19h-39l-.2 39.7-.1 39.7 20.1-.2 20.2-.2v40l34 .2c18.7.1 36.7.2 40 .3h6l-.2 39.9-.1 40 20.1-.2 20.2-.2-.2 20.1-.3 20.2 20.3-.2 20.2-.1-.3 20.2-.2 20.1 20.2-.1 20.3-.2V1208h-4c-2.2.1-38.3.1-80.2.1h-76.2v34.4l-.1 6h-39.5l-.2 39.7-.1 39.6h19.5c10.7 0 19.7.3 20 .5.2.3.4 9.3.4 20v19.5l319.7-.1 319.7-.2.2-19.3c.1-10.7.4-19.6.6-19.9.3-.2 18.2-.5 39.8-.6l39.4-.2.2-39.7.2-39.6-39.6-.1c-21.7 0-39.7-.2-40-.4-.2-.3-.4-9.3-.4-20l.1-19.5-80.3.1-80.2.2.2-59.8c0-32.9.3-60.1.6-60.3.3-.3 36.2-.6 79.9-.7l79.3-.2.1-19.3c.1-10.6.4-19.5.7-19.8.3-.3 9.2-.6 19.9-.7l19.3-.2V968l4-.1c2.2 0 11.3 0 20.2-.1h16.2l.1-19.8v-19.8h-79.9l-80-.1.2 20.2.2 20.2-78.5-.2c-43.2-.1-79.4-.2-80.5-.3-1.9 0-2-.6-1.8-19.9l.2-19.9h-19.5c-10.7 0-19.7-.2-20-.5-.3-.2-.6-9.3-.7-20.1l-.2-19.6h3.5c1.9-.1 38-.1 80.2-.1l76.8-.1-.3-20.2-.2-20.1 40.2.2 40.3.2-.3-20.2-.2-20.2h40v-40l20.2.2 20.2.3-.2-20.3-.2-20.2 20.2.2 20.2.2-.2-40.2-.2-40.2h40l.2-59.7.2-59.7-19.5.1c-10.7 0-19.7-.2-20-.5-.3-.3-.5-18.3-.5-40l-.1-39.5h-19.5c-10.7 0-19.7-.3-20-.5-.2-.3-.5-9.3-.4-20v-19.4l-19.6-.1c-10.7-.1-19.8-.3-20-.6-.3-.3-.5-9.2-.5-20v-19.4l-40.1.1-40.2.2.3-20.2.2-20.1-60.2.1-60.3.2.2-20.2.2-20.2h-75.4l-5-.1.2-59.6c.1-32.8.4-59.8.7-60.1.2-.2 18.1-.5 39.8-.6l39.3-.2.2-19.3c.1-10.7.4-19.6.7-19.9.2-.3 9.2-.6 19.8-.7l19.3-.1.2-39.7.1-39.7-19.4.1c-10.8 0-19.8-.2-20.1-.5-.2-.3-.4-9.3-.4-20l.1-19.5h-99.9l-100-.1.2 19.7zm79.4 860.5c.4.4.5 13.4.4 34.2l-.1 6h-39.5v40h-121l.2-38.5c.1-21.2.2-39.3.3-40.2 0-1.4 1.1-1.8 5.8-2 9.3-.5 153.3 0 153.9.5z"/><path d="M548.2 87.9l-.1 39.9H568l19.8.1-.1-39.7-.2-39.7-19.6-.2-19.7-.2v39.8zM228.1 387.7c0 10.8-.2 19.8-.5 20-.3.3-9.2.5-20 .5l-19.4-.1-.1 39.8v39.9l19.7-.2 19.7-.1.2-39.3c.1-21.7.4-39.6.7-40 .3-.3 9.3-.5 20-.4l19.5.2-.1-20v-19.9l-19.8.1h-19.8l-.1 19.5zM1108.5 408.9c-.2.5-.4 9.5-.4 20l.1 19 19.7-.2 19.6-.2.2-19.6.2-19.6-19.4-.1c-10.7-.1-19.7.3-20 .7zM1148.4 467.8l.1 19.7 19.7.2 19.6.2.1-19.8v-19.9h-19.8l-19.9-.1.2 19.7zM148.6 568.8c-.3.5-.5 18.4-.5 39.9v39l19.6.2c10.8.1 19.8.3 20.1.5.2.3.5 18.2.5 39.8l.2 39.3 19.7.2 19.6.2v-39.8l.1-39.8-19.6-.1c-10.8-.1-19.8-.4-20.1-.6-.2-.3-.4-18.2-.3-39.9l.1-39.4-19.5-.1c-10.7-.1-19.6.2-19.9.6zM1188.6 608.8c-.2.4-.4 18.2-.4 39.6 0 21.3-.3 39-.5 39.3-.3.2-9.3.5-20.1.5h-19.5v19.5c0 10.7-.2 19.7-.4 20-.3.2-9.3.5-20.1.5H1108l.1 19.8.1 19.8 19.8.1h19.8v-19.5c0-10.7.3-19.8.6-20.1.3-.3 9.2-.6 19.8-.7l19.3-.1.2-19.4c.1-10.6.4-19.5.7-19.8.2-.2 9.2-.5 19.9-.5l19.6-.1v-39.8l-.1-39.8h-19.4c-10.6 0-19.6.3-19.8.7zM1148.6 928.9c-.3.4-.5 18.2-.5 39.5s-.2 39-.4 39.2c-.3.3-9.2.6-19.8.7l-19.4.2-.2 59.7-.1 59.6h39.7v-59.5c0-32.7.2-59.7.5-60 .3-.3 9.3-.5 20-.4l19.4.1.1-39.9v-39.9h-19.4c-10.7-.1-19.6.2-19.9.7zM268.6 1008.9c-.3.4-.5 9.3-.5 19.8l.1 19.2 19.6-.2 19.7-.2.2-19.6.2-19.6-19.4-.1c-10.7 0-19.7.3-19.9.7zM308.5 1049.3c-.2.7-.3 18.5-.2 39.7l.2 38.5h39l.2-39.6.2-39.6-19.5-.1c-14.5-.1-19.6.2-19.9 1.1zM148.6 1128.8c-.3.5-.5 9.4-.5 19.9l.1 19.2 19.4-.1c10.8 0 19.8.3 20.1.6.3.3.5 9.3.4 20l-.1 19.4 39.8-.1 39.7-.2.2-19.6.2-19.7h-39.6c-21.7-.1-39.7-.3-40-.6-.3-.2-.5-9.2-.4-19.9v-19.4l-19.4-.1c-10.7-.1-19.6.2-19.9.6zM1068.6 1128.8c-.2.4-.5 9.3-.5 19.8v19.1l19.9.1 19.9.1-.2-19.7-.2-19.7-19.2-.2c-10.6-.2-19.4.1-19.7.5z"/></svg>